{
  "asset": {
    "generator": "Khronos glTF Blender I/O v3.3.27",
    "version": "2.0"
  },
  "extensionsUsed": ["KHR_materials_specular", "KHR_materials_ior"],
  "scene": 0,
  "scenes": [
    {
      "name": "Scene",
      "nodes": [0]
    }
  ],
  "nodes": [
    {
      "mesh": 0,
      "name": "M_CardBack_Chaos",
      "rotation": [0.7071068286895752, 0, 0, 0.7071067094802856],
      "scale": [0.02539999969303608, 0.02539999969303608, 0.02539999969303608]
    }
  ],
  "animations": [
    {
      "channels": [
        {
          "sampler": 0,
          "target": {
            "node": 0,
            "path": "translation"
          }
        },
        {
          "sampler": 1,
          "target": {
            "node": 0,
            "path": "rotation"
          }
        },
        {
          "sampler": 2,
          "target": {
            "node": 0,
            "path": "scale"
          }
        }
      ],
      "name": "M_CardBack_Chaos|Take 001|BaseLayer",
      "samplers": [
        {
          "input": 4,
          "interpolation": "STEP",
          "output": 5
        },
        {
          "input": 4,
          "interpolation": "STEP",
          "output": 6
        },
        {
          "input": 4,
          "interpolation": "STEP",
          "output": 7
        }
      ]
    }
  ],
  "materials": [
    {
      "doubleSided": true,
      "extensions": {
        "KHR_materials_specular": {
          "specularColorFactor": [
            2.371357614441398, 2.371357614441398, 2.371357614441398
          ]
        },
        "KHR_materials_ior": {
          "ior": 1.4500000476837158
        }
      },
      "name": "01 - Default",
      "pbrMetallicRoughness": {
        "baseColorTexture": {
          "index": 0
        },
        "metallicFactor": 0,
        "roughnessFactor": 0.5527864098548889
      }
    }
  ],
  "meshes": [
    {
      "name": "Mesh",
      "primitives": [
        {
          "attributes": {
            "POSITION": 0,
            "NORMAL": 1,
            "TEXCOORD_0": 2
          },
          "indices": 3,
          "material": 0
        }
      ]
    }
  ],
  "textures": [
    {
      "sampler": 0,
      "source": 0
    }
  ],
  "images": [
    {
      "bufferView": 4,
      "mimeType": "image/png",
      "name": "Tex_CardBack_Chaos"
    }
  ],
  "accessors": [
    {
      "bufferView": 0,
      "componentType": 5126,
      "count": 2190,
      "max": [1.9598348140716553, 0.11961544305086136, 3.0592174530029297],
      "min": [-1.9598348140716553, -0.07076411694288254, -3.0592174530029297],
      "type": "VEC3"
    },
    {
      "bufferView": 1,
      "componentType": 5126,
      "count": 2190,
      "type": "VEC3"
    },
    {
      "bufferView": 2,
      "componentType": 5126,
      "count": 2190,
      "type": "VEC2"
    },
    {
      "bufferView": 3,
      "componentType": 5123,
      "count": 8025,
      "type": "SCALAR"
    },
    {
      "bufferView": 5,
      "componentType": 5126,
      "count": 1,
      "max": [0.03333333333333333],
      "min": [0.03333333333333333],
      "type": "SCALAR"
    },
    {
      "bufferView": 6,
      "componentType": 5126,
      "count": 1,
      "type": "VEC3"
    },
    {
      "bufferView": 7,
      "componentType": 5126,
      "count": 1,
      "type": "VEC4"
    },
    {
      "bufferView": 8,
      "componentType": 5126,
      "count": 1,
      "type": "VEC3"
    }
  ],
  "bufferViews": [
    {
      "buffer": 0,
      "byteLength": 26280,
      "byteOffset": 0,
      "target": 34962
    },
    {
      "buffer": 0,
      "byteLength": 26280,
      "byteOffset": 26280,
      "target": 34962
    },
    {
      "buffer": 0,
      "byteLength": 17520,
      "byteOffset": 52560,
      "target": 34962
    },
    {
      "buffer": 0,
      "byteLength": 16050,
      "byteOffset": 70080,
      "target": 34963
    },
    {
      "buffer": 0,
      "byteLength": 2262718,
      "byteOffset": 86132
    },
    {
      "buffer": 0,
      "byteLength": 4,
      "byteOffset": 2348852
    },
    {
      "buffer": 0,
      "byteLength": 12,
      "byteOffset": 2348856
    },
    {
      "buffer": 0,
      "byteLength": 16,
      "byteOffset": 2348868
    },
    {
      "buffer": 0,
      "byteLength": 12,
      "byteOffset": 2348884
    }
  ],
  "samplers": [
    {
      "magFilter": 9729,
      "minFilter": 9987
    }
  ],
  "buffers": [
    {
      "byteLength": 2348896,
      "uri": "data:application/octet-stream;base64,"
    }
  ]
}
