{
	"asset":{
		"version":"2.0",
		"generator":""
	},
	"scenes":[{
		"nodes":[0,
		1]
	}],
	"nodes":[{
		"name":"Camera Rotation",
		"translation":[0.0,
		0.0,
		0.0],
		"rotation":[0.0,
		-0.014936098828911782,
		0.0,
		-0.9998884797096252],
		"scale":[1.0,
		1.0,
		1.0],
		"children":[2]
	},
	{
		"name":"Card_Pack_WOLF_Baked",
		"mesh":0,
		"translation":[-0.0014722418272867799,
		-0.005248294677585363,
		0.003661882597953081],
		"rotation":[0.8073957562446594,
		-0.019355645403265954,
		-0.21209554374217988,
		-0.5502299070358276],
		"scale":[0.2549999952316284,
		0.2549999952316284,
		0.2549999952316284]
	},
	{
		"name":"Camera",
		"camera":0,
		"translation":[0.0,
		0.0,
		3.6500000953674318],
		"rotation":[0.0,
		0.0,
		0.0,
		-1.0],
		"scale":[1.0,
		1.0,
		1.0]
	}],
	"meshes":[{
		"name":"Card_Pack_WOLF_Baked",
		"primitives":[{
			"attributes":{
				"POSITION":3,
				"NORMAL":4,
				"TEXCOORD_0":5
			},
			"indices":2,
			"material":0
		}]
	}],
	"cameras":[{
		"type":"perspective",
		"perspective":{
			"znear":0.009999999776482582,
			"zfar":10000000000.0,
			"aspectRatio":1.7777777910232545,
			"yfov":0.5483348965644836
		}
	}],
	"accessors":[{
		"type":"SCALAR",
		"bufferView":0,
		"componentType":5126,
		"count":421,
		"byteOffset":0,
		"min":[0.0],
		"max":[14.0]
	},
	{
		"type":"VEC4",
		"bufferView":0,
		"componentType":5126,
		"count":421,
		"byteOffset":1684,
		"min":[0.0,
		-0.03502945601940155,
		-7.450580596923828e-9,
		-1.0],
		"max":[2.8701357956961717e-10,
		-0.00003259619916207157,
		1.053280218599184e-8,
		1.0]
	},
	{
		"type":"SCALAR",
		"bufferView":1,
		"componentType":5123,
		"count":98664,
		"byteOffset":0,
		"min":[0],
		"max":[19869]
	},
	{
		"type":"VEC3",
		"bufferView":2,
		"componentType":5126,
		"count":19870,
		"byteOffset":0,
		"min":[-1.5238099098205567,
		-0.6068441867828369,
		-1.9981393814086915],
		"max":[1.2757700681686402,
		0.6068441867828369,
		1.9981393814086915]
	},
	{
		"type":"VEC3",
		"bufferView":2,
		"componentType":5126,
		"count":19870,
		"byteOffset":12,
		"min":[-1.0,
		-1.0,
		-1.0],
		"max":[1.0,
		1.0,
		1.0]
	},
	{
		"type":"VEC2",
		"bufferView":2,
		"componentType":5126,
		"count":19870,
		"byteOffset":24,
		"min":[0.0004758574068546295,
		0.0018209218978881837],
		"max":[0.9975721836090088,
		0.9953780174255371]
	},
	{
		"type":"SCALAR",
		"bufferView":3,
		"componentType":5126,
		"count":421,
		"byteOffset":0,
		"min":[0.0],
		"max":[14.0]
	},
	{
		"type":"VEC3",
		"bufferView":3,
		"componentType":5126,
		"count":421,
		"byteOffset":1684,
		"min":[-0.21513299643993379,
		-0.027864303439855577,
		-3.324263095855713],
		"max":[0.08089961856603623,
		0.04004359990358353,
		1.288253664970398]
	},
	{
		"type":"SCALAR",
		"bufferView":4,
		"componentType":5126,
		"count":421,
		"byteOffset":0,
		"min":[0.0],
		"max":[14.0]
	},
	{
		"type":"VEC4",
		"bufferView":4,
		"componentType":5126,
		"count":421,
		"byteOffset":1684,
		"min":[0.27373048663139346,
		-0.4873434007167816,
		-0.7801051735877991,
		-0.6072413921356201],
		"max":[0.8731480836868286,
		0.5278499126434326,
		0.8652660250663757,
		-0.02030876651406288]
	},
	{
		"type":"SCALAR",
		"bufferView":5,
		"componentType":5126,
		"count":421,
		"byteOffset":0,
		"min":[0.0],
		"max":[14.0]
	},
	{
		"type":"VEC3",
		"bufferView":5,
		"componentType":5126,
		"count":421,
		"byteOffset":1684,
		"min":[0.0,
		0.0,
		0.0],
		"max":[0.2549999952316284,
		0.2549999952316284,
		0.2549999952316284]
	}],
	"bufferViews":[{
		"buffer":0,
		"byteOffset":0,
		"byteLength":8420
	},
	{
		"buffer":1,
		"byteOffset":0,
		"byteLength":197328,
		"target":34963
	},
	{
		"buffer":1,
		"byteOffset":197328,
		"byteLength":635840,
		"target":34962,
		"byteStride":32
	},
	{
		"buffer":2,
		"byteOffset":0,
		"byteLength":6736
	},
	{
		"buffer":2,
		"byteOffset":6736,
		"byteLength":8420
	},
	{
		"buffer":2,
		"byteOffset":15156,
		"byteLength":6736
	}],
	"buffers":[{
		"uri":"data:application/octet-stream;base64,",
		"byteLength":8420
	},
	{
		"uri":"data:application/octet-stream;base64,",
		"byteLength":833168
	},
	{
		"uri":"data:application/octet-stream;base64,",
		"byteLength":21892
	}],
	"materials":[{
		"pbrMetallicRoughness":{
			"baseColorFactor":[1.0,
			1.0,
			1.0,
			1.0],
			"metallicFactor":1.0,
			"roughnessFactor":1.0
		},
		"name":"",
		"emissiveFactor":[0.0,
		0.0,
		0.0],
		"alphaMode":"OPAQUE",
		"doubleSided":false
	}],
	"animations":[{
		"samplers":[{
			"input":0,
			"interpolation":"LINEAR",
			"output":1
		},
		{
			"input":6,
			"interpolation":"LINEAR",
			"output":7
		},
		{
			"input":8,
			"interpolation":"LINEAR",
			"output":9
		},
		{
			"input":10,
			"interpolation":"LINEAR",
			"output":11
		}],
		"channels":[{
			"sampler":0,
			"target":{
				"node":0,
				"path":"rotation"
			}
		},
		{
			"sampler":1,
			"target":{
				"node":1,
				"path":"translation"
			}
		},
		{
			"sampler":2,
			"target":{
				"node":1,
				"path":"rotation"
			}
		},
		{
			"sampler":3,
			"target":{
				"node":1,
				"path":"scale"
			}
		}]
	}]
}